<?xml version="1.0" encoding="utf-8"?>
<!-- Svg Vector Icons : http://www.onlinewebfonts.com/icon -->
<!DOCTYPE svg PUBLIC "-//W3C//DTD SVG 1.1//EN" "http://www.w3.org/Graphics/SVG/1.1/DTD/svg11.dtd">
<svg version="1.1" fill="white" xmlns="http://www.w3.org/2000/svg" xmlns:xlink="http://www.w3.org/1999/xlink" x="0px" y="0px" viewBox="0 0 1000 1000" enable-background="new 0 0 1000 1000" xml:space="preserve">
<metadata> Svg Vector Icons : http://www.onlinewebfonts.com/icon </metadata>
<g><path d="M69.6,818L69.6,818c4.2,7.1,6.6,15.1,6.6,24L47.7,990l132.5-52.1c6.4-2.6,13.2-4,20.5-4c6.6,0,13,1.2,18.9,3.3h0.5c0.9,0.5,1.9,0.7,2.8,1.2c42,17.2,88.2,26.9,136.5,26.9c109.2,0,206.5-48.3,270.6-123.9c-33.2,8.5-68.1,13.4-104,13.4c-226.1,0-409.5-176.7-409.5-394.6c0-27.8,3.1-54.7,8.7-80.8C54.6,440.9,10,529.7,10,628.6c0,66.9,20.3,130,55.4,182.6C66.8,813.1,68.2,815.7,69.6,818L69.6,818z M581.2,10c-197.3,0-362.1,134.8-400.8,313.8c-5.7,26.1-8.7,53-8.7,80.8c0,217.9,183.2,394.6,409.5,394.6c36.1,0,70.7-4.9,104-13.4c19.1-4.9,38-10.6,56.1-17.9c1.2-0.5,2.1-0.9,3.3-1.4c0.2,0,0.5,0,0.5-0.2c6.8-2.6,14.4-4,21.9-4c8.5,0,16.5,1.6,23.8,4.7l161.7,60.8l-40.1-173.9c0-10.4,2.8-20.3,7.8-28.7l0,0c1.4-2.6,3.3-4.9,4.9-7.3c41-61.5,64.8-134.8,64.8-213.2C990.7,186.7,807.5,10,581.2,10L581.2,10z"/></g>
</svg>